<svg width="360" height="60" viewBox="0 0 360 60" fill="none" xmlns="http://www.w3.org/2000/svg">
<g clip-path="url(#clip0_827_12525)">
<circle cx="30" cy="30" r="30" fill="#899FC9"/>
<path d="M18 27.7578C18 26.5616 18.5354 25.4281 19.4593 24.6683L27.4593 18.0894C28.9356 16.8754 31.0644 16.8754 32.5407 18.0894L40.5407 24.6683C41.4646 25.4281 42 26.5616 42 27.7578V38.3158C42 40.5249 40.2091 42.3158 38 42.3158H34.7895C34.2372 42.3158 33.7895 41.8681 33.7895 41.3158V36.4211C33.7895 35.3165 32.894 34.4211 31.7895 34.4211H28.2105C27.106 34.4211 26.2105 35.3165 26.2105 36.4211V41.3158C26.2105 41.8681 25.7628 42.3158 25.2105 42.3158H22C19.7909 42.3158 18 40.5249 18 38.3158L18 27.7578Z" fill="white" stroke="white" stroke-width="1.5"/>
<circle cx="90" cy="30" r="30" fill="#F4D08B"/>
<path d="M88.9948 18.5419C89.4682 17.8157 90.5318 17.8157 91.0052 18.5419L94.6671 24.1585C94.8402 24.4241 95.1114 24.6104 95.4214 24.6766L102.184 26.1225C103.098 26.3179 103.448 27.4371 102.808 28.118L98.3602 32.8474C98.1241 33.0984 98.0074 33.4388 98.0396 33.7818L98.6344 40.1086C98.7181 40.9982 97.8349 41.6639 97.0027 41.3385L90.437 38.7709C90.156 38.661 89.844 38.661 89.563 38.7709L82.9973 41.3385C82.1651 41.6639 81.2819 40.9982 81.3656 40.1086L81.9604 33.7818C81.9926 33.4388 81.8759 33.0984 81.6398 32.8474L77.1923 28.118C76.552 27.4371 76.9016 26.3179 77.8156 26.1225L84.5786 24.6766C84.8886 24.6104 85.1598 24.4241 85.3329 24.1585L88.9948 18.5419Z" fill="white" stroke="white" stroke-width="1.5"/>
<circle cx="150" cy="30" r="30" fill="#AA5353"/>
<path fill-rule="evenodd" clip-rule="evenodd" d="M138 31.2857C138 27.5381 141.038 24.5 144.786 24.5H156.214C159.962 24.5 163 27.5381 163 31.2857V37C163 40.7476 159.962 43.7857 156.214 43.7857H144.786C141.038 43.7857 138 40.7476 138 37V31.2857ZM151.25 32.7143C151.25 32.3001 150.914 31.9643 150.5 31.9643C150.086 31.9643 149.75 32.3001 149.75 32.7143V35.5714C149.75 35.9856 150.086 36.3214 150.5 36.3214C150.914 36.3214 151.25 35.9856 151.25 35.5714V32.7143Z" fill="white"/>
<path d="M156.214 25.5714V21C156.214 18.7909 154.423 17 152.214 17H148.786C146.577 17 144.786 18.7909 144.786 21L144.786 25.5714" stroke="white" stroke-width="1.5"/>
<circle cx="210" cy="30" r="30" fill="#F2C7C4"/>
<path d="M200.078 33.7668L208.324 42.4565C209.507 43.7032 211.493 43.7032 212.676 42.4565L220.922 33.7668C223.693 30.8462 223.693 26.111 220.922 23.1904C218.15 20.2699 213.657 20.2699 210.886 23.1904V23.1904C210.676 23.4116 210.324 23.4116 210.114 23.1904V23.1904C207.343 20.2699 202.85 20.2699 200.078 23.1904C197.307 26.111 197.307 30.8462 200.078 33.7668Z" fill="white" stroke="white" stroke-width="1.5"/>
<circle cx="270" cy="30" r="30" fill="#B5C573"/>
<path d="M272.376 15.1729C272.375 15.0966 272.292 15.0465 272.226 15.0848C266.3 18.527 266.552 27.4756 266.616 28.7177C266.62 28.7887 266.553 28.836 266.488 28.8078C265.924 28.5648 263.819 27.4254 263.752 23.9518C263.75 23.8754 263.668 23.8251 263.602 23.8634C260.253 25.8037 258 29.4426 258 33.4821C258 39.6066 263.149 44.5714 269.5 44.5714C275.851 44.5714 281 39.6066 281 33.4821C281 24.5406 272.506 22.6524 272.376 15.1729Z" fill="white" stroke="white" stroke-width="1.5"/>
<circle cx="330" cy="30" r="30" fill="#8077B9"/>
<path d="M333.585 27.0377C333.474 27.0377 333.385 26.9482 333.385 26.8377V12.6038C333.385 12.4112 333.139 12.3299 333.024 12.4844L318.594 31.8781C318.349 32.208 318.584 32.6766 318.995 32.6766H327.415C327.526 32.6766 327.615 32.7661 327.615 32.8766V47.1105C327.615 47.303 327.861 47.3844 327.976 47.2298L342.406 27.8362C342.651 27.5063 342.416 27.0377 342.005 27.0377H333.585Z" fill="white" stroke="white" stroke-width="1.5"/>
</g>
<defs>
<clipPath id="clip0_827_12525">
<rect width="360" height="60" fill="white"/>
</clipPath>
</defs>
</svg>
